# xmcd
# 
# Track frame offsets:
#     225
#     12761
#     22562
#     33535
#     46626
#     56462
#     64778
#     79210
#     89872
#     106587
#     119423
#     134183
#     150416
#     165844
#     181126
#     195997
# 
# Disc length: 2768
# 
# Revision: 3
# Processed by: cddbd v1.5.2PL0 Copyright (c) Steve Scherf et al.
# Submitted via: BonkEnc v1.0.6
# 
DISCID=bb0acd10
DTITLE=Various Artist - International Country Hits
DYEAR=2000
DGENRE=Country
TTITLE0=Various Artist - Pink Cadillac and a lot of cash
TTITLE1=Various Artist - Cowboy Boots
TTITLE2=Various Artist - Cry, cry, cry
TTITLE3=Various Artist - Jambalaya - On the Bayou
TTITLE4=Various Artist - From a Jack to a King
TTITLE5=Various Artist - Dang me
TTITLE6=Various Artist - Hello, country lady
TTITLE7=Various Artist - Heaven's just a sin away
TTITLE8=Various Artist - You make me feel so good
TTITLE9=Various Artist - The never made it to Memphis
TTITLE10=Various Artist - Crystal Chandliers
TTITLE11=Various Artist - Crazy dreams
TTITLE12=Various Artist - Yesteray's news just hit home
TTITLE13=Various Artist - Highway calling
TTITLE14=Various Artist - I'll be the last to know
TTITLE15=Various Artist - Making believe
EXTD=YEAR: 2000 ID3G: 2
EXTT0=
EXTT1=
EXTT2=
EXTT3=
EXTT4=
EXTT5=
EXTT6=
EXTT7=
EXTT8=
EXTT9=
EXTT10=
EXTT11=
EXTT12=
EXTT13=
EXTT14=
EXTT15=
PLAYORDER=
